<svg width="208" height="47" viewBox="0 0 208 47" fill="none" xmlns="http://www.w3.org/2000/svg">
<rect width="208" height="47" rx="2" fill="#D60000"/>
<path d="M21.4258 30V15.7812H25.6543C26.9173 15.7812 28.0306 16.0612 28.9941 16.6211C29.9577 17.181 30.7096 17.9655 31.25 18.9746C31.7904 19.9837 32.0605 21.1686 32.0605 22.5293V23.252C32.0605 24.6126 31.7904 25.8008 31.25 26.8164C30.7096 27.8255 29.9512 28.61 28.9746 29.1699C28.0046 29.7233 26.8685 30 25.5664 30H21.4258ZM25.6543 17.8125H23.9453V27.9785H25.5664C26.875 27.9785 27.8613 27.5618 28.5254 26.7285C29.196 25.8887 29.5312 24.7298 29.5312 23.252V22.5098C29.5312 20.9993 29.196 19.8405 28.5254 19.0332C27.8613 18.2194 26.9043 17.8125 25.6543 17.8125ZM33.8184 24.6191C33.8184 23.5905 34.0137 22.6725 34.4043 21.8652C34.7949 21.0514 35.3548 20.4102 36.084 19.9414C36.8197 19.4727 37.7018 19.2383 38.7305 19.2383C39.7721 19.2383 40.6608 19.4727 41.3965 19.9414C42.1322 20.4102 42.6921 21.0514 43.0762 21.8652C43.4668 22.6725 43.6621 23.5905 43.6621 24.6191V24.8242C43.6621 25.8464 43.4668 26.7643 43.0762 27.5781C42.6921 28.3854 42.1322 29.0234 41.3965 29.4922C40.6673 29.9609 39.7852 30.1953 38.75 30.1953C37.7148 30.1953 36.8294 29.9609 36.0938 29.4922C35.3581 29.0234 34.7949 28.3854 34.4043 27.5781C34.0137 26.7643 33.8184 25.8464 33.8184 24.8242V24.6191ZM36.2402 24.8242C36.2402 25.4492 36.3249 26.0221 36.4941 26.543C36.6699 27.0573 36.9434 27.4707 37.3145 27.7832C37.6855 28.0957 38.1641 28.252 38.75 28.252C39.3294 28.252 39.8014 28.0957 40.166 27.7832C40.5371 27.4707 40.8073 27.0573 40.9766 26.543C41.1523 26.0221 41.2402 25.4492 41.2402 24.8242V24.6191C41.2402 24.0072 41.1523 23.4408 40.9766 22.9199C40.8073 22.3991 40.5371 21.9792 40.166 21.6602C39.7949 21.3411 39.3164 21.1816 38.7305 21.1816C38.151 21.1816 37.6758 21.3411 37.3047 21.6602C36.9401 21.9792 36.6699 22.3991 36.4941 22.9199C36.3249 23.4408 36.2402 24.0072 36.2402 24.6191V24.8242ZM50.9277 19.4336H52.7344L54.8926 26.6797L56.5332 19.4336H58.8867L56.0449 30H54.043L51.8164 22.8223L49.6094 30H47.6172L44.7656 19.4336H47.1289L48.7891 26.6016L50.9277 19.4336ZM62.8711 30H60.4492V19.4336H62.7246L62.8027 20.6836C63.1738 20.2214 63.6198 19.8665 64.1406 19.6191C64.6615 19.3652 65.2409 19.2383 65.8789 19.2383C66.8945 19.2383 67.7083 19.5378 68.3203 20.1367C68.9388 20.7292 69.248 21.748 69.248 23.1934V30H66.8164V23.1738C66.8164 22.4382 66.6569 21.9303 66.3379 21.6504C66.0254 21.3639 65.5697 21.2207 64.9707 21.2207C64.4889 21.2207 64.069 21.3379 63.7109 21.5723C63.3594 21.8001 63.0794 22.1094 62.8711 22.5V30ZM74.209 30H71.7871V15H74.209V30ZM76.3184 24.6191C76.3184 23.5905 76.5137 22.6725 76.9043 21.8652C77.2949 21.0514 77.8548 20.4102 78.584 19.9414C79.3197 19.4727 80.2018 19.2383 81.2305 19.2383C82.2721 19.2383 83.1608 19.4727 83.8965 19.9414C84.6322 20.4102 85.1921 21.0514 85.5762 21.8652C85.9668 22.6725 86.1621 23.5905 86.1621 24.6191V24.8242C86.1621 25.8464 85.9668 26.7643 85.5762 27.5781C85.1921 28.3854 84.6322 29.0234 83.8965 29.4922C83.1673 29.9609 82.2852 30.1953 81.25 30.1953C80.2148 30.1953 79.3294 29.9609 78.5938 29.4922C77.8581 29.0234 77.2949 28.3854 76.9043 27.5781C76.5137 26.7643 76.3184 25.8464 76.3184 24.8242V24.6191ZM78.7402 24.8242C78.7402 25.4492 78.8249 26.0221 78.9941 26.543C79.1699 27.0573 79.4434 27.4707 79.8145 27.7832C80.1855 28.0957 80.6641 28.252 81.25 28.252C81.8294 28.252 82.3014 28.0957 82.666 27.7832C83.0371 27.4707 83.3073 27.0573 83.4766 26.543C83.6523 26.0221 83.7402 25.4492 83.7402 24.8242V24.6191C83.7402 24.0072 83.6523 23.4408 83.4766 22.9199C83.3073 22.3991 83.0371 21.9792 82.666 21.6602C82.2949 21.3411 81.8164 21.1816 81.2305 21.1816C80.651 21.1816 80.1758 21.3411 79.8047 21.6602C79.4401 21.9792 79.1699 22.3991 78.9941 22.9199C78.8249 23.4408 78.7402 24.0072 78.7402 24.6191V24.8242ZM94.0625 22.8613C94.0625 22.3145 93.9095 21.8783 93.6035 21.5527C93.304 21.2272 92.8483 21.0645 92.2363 21.0645C91.6829 21.0645 91.2402 21.2012 90.9082 21.4746C90.5827 21.748 90.4199 22.0898 90.4199 22.5H87.998C87.998 21.9336 88.1771 21.403 88.5352 20.9082C88.8932 20.4069 89.3978 20.0033 90.0488 19.6973C90.7064 19.3913 91.4811 19.2383 92.373 19.2383C93.5645 19.2383 94.5475 19.541 95.3223 20.1465C96.097 20.752 96.4844 21.6634 96.4844 22.8809V27.5391C96.4844 28.5026 96.6211 29.2676 96.8945 29.834V30H94.4141C94.3034 29.7526 94.2155 29.4173 94.1504 28.9941C93.8444 29.3262 93.457 29.6094 92.9883 29.8438C92.526 30.0781 91.9792 30.1953 91.3477 30.1953C90.6576 30.1953 90.0423 30.0586 89.502 29.7852C88.9616 29.5117 88.5352 29.1374 88.2227 28.6621C87.9167 28.1868 87.7637 27.6465 87.7637 27.041C87.7637 25.9212 88.1836 25.0618 89.0234 24.4629C89.8633 23.8639 91.0547 23.5645 92.5977 23.5645H94.0625V22.8613ZM91.8262 28.2715C92.373 28.2715 92.8418 28.1445 93.2324 27.8906C93.623 27.6302 93.8997 27.3405 94.0625 27.0215V25.0586H92.7734C91.9141 25.0586 91.2663 25.2181 90.8301 25.5371C90.4004 25.8496 90.1855 26.276 90.1855 26.8164C90.1855 27.2331 90.3255 27.5814 90.6055 27.8613C90.8919 28.1348 91.2988 28.2715 91.8262 28.2715ZM98.4961 24.6289C98.4961 23.5612 98.6621 22.6237 98.9941 21.8164C99.3327 21.0026 99.8112 20.3711 100.43 19.9219C101.048 19.4661 101.79 19.2383 102.656 19.2383C103.229 19.2383 103.737 19.3424 104.18 19.5508C104.629 19.7526 105.02 20.0423 105.352 20.4199V15H107.773V30H105.576L105.459 28.877C105.127 29.2936 104.727 29.6191 104.258 29.8535C103.789 30.0814 103.249 30.1953 102.637 30.1953C101.784 30.1953 101.048 29.9642 100.43 29.502C99.8112 29.0332 99.3327 28.3952 98.9941 27.5879C98.6621 26.7806 98.4961 25.8626 98.4961 24.834V24.6289ZM100.918 24.834C100.918 25.459 100.996 26.0286 101.152 26.543C101.309 27.0508 101.556 27.4577 101.895 27.7637C102.24 28.0632 102.692 28.2129 103.252 28.2129C103.773 28.2129 104.202 28.0957 104.541 27.8613C104.886 27.627 105.156 27.3177 105.352 26.9336V22.4707C105.156 22.0866 104.886 21.7839 104.541 21.5625C104.202 21.3346 103.779 21.2207 103.271 21.2207C102.712 21.2207 102.259 21.3737 101.914 21.6797C101.569 21.9857 101.315 22.3958 101.152 22.9102C100.996 23.4245 100.918 23.9974 100.918 24.6289V24.834ZM120.479 15.7812C122.106 15.7812 123.372 16.1458 124.277 16.875C125.182 17.6042 125.635 18.6686 125.635 20.0684C125.635 21.0319 125.4 21.8359 124.932 22.4805C124.469 23.125 123.835 23.6198 123.027 23.9648L126.201 29.873V30H123.506L120.674 24.5605H117.949V30H115.43V15.7812H120.479ZM120.479 17.8125H117.949V22.5391H120.498C121.364 22.5391 122.015 22.321 122.451 21.8848C122.887 21.4421 123.105 20.8822 123.105 20.2051C123.105 19.4759 122.894 18.8965 122.471 18.4668C122.048 18.0306 121.383 17.8125 120.479 17.8125ZM132.461 30.1953C131.413 30.1953 130.508 29.9707 129.746 29.5215C128.984 29.0658 128.398 28.4538 127.988 27.6855C127.578 26.9108 127.373 26.0449 127.373 25.0879V24.6875C127.373 23.5872 127.581 22.6302 127.998 21.8164C128.415 20.9961 128.984 20.3613 129.707 19.9121C130.436 19.4629 131.26 19.2383 132.178 19.2383C133.193 19.2383 134.036 19.4596 134.707 19.9023C135.378 20.3385 135.879 20.9473 136.211 21.7285C136.543 22.5033 136.709 23.4017 136.709 24.4238V25.4688H129.814C129.88 26.2695 130.156 26.9336 130.645 27.4609C131.133 27.9818 131.787 28.2422 132.607 28.2422C133.174 28.2422 133.675 28.1315 134.111 27.9102C134.548 27.6888 134.928 27.3698 135.254 26.9531L136.523 28.2227C136.185 28.724 135.684 29.1797 135.02 29.5898C134.355 29.9935 133.503 30.1953 132.461 30.1953ZM132.168 21.1816C131.523 21.1816 131.006 21.4095 130.615 21.8652C130.225 22.321 129.974 22.9395 129.863 23.7207H134.316V23.5352C134.303 23.125 134.222 22.7409 134.072 22.3828C133.929 22.0247 133.701 21.735 133.389 21.5137C133.083 21.2923 132.676 21.1816 132.168 21.1816ZM144.424 27.1191C144.424 26.8978 144.365 26.696 144.248 26.5137C144.131 26.3249 143.91 26.1556 143.584 26.0059C143.258 25.8561 142.783 25.7129 142.158 25.5762C141.038 25.3418 140.127 24.9837 139.424 24.502C138.727 24.0202 138.379 23.3333 138.379 22.4414C138.379 21.8685 138.542 21.3411 138.867 20.8594C139.199 20.3711 139.671 19.9805 140.283 19.6875C140.895 19.388 141.624 19.2383 142.471 19.2383C143.356 19.2383 144.118 19.388 144.756 19.6875C145.394 19.9805 145.882 20.3809 146.221 20.8887C146.566 21.39 146.738 21.9596 146.738 22.5977H144.316C144.316 22.181 144.16 21.8164 143.848 21.5039C143.542 21.1849 143.079 21.0254 142.461 21.0254C141.882 21.0254 141.449 21.1589 141.162 21.4258C140.876 21.6862 140.732 21.9889 140.732 22.334C140.732 22.679 140.879 22.959 141.172 23.1738C141.471 23.3822 142.041 23.5742 142.881 23.75C144.092 24.0039 145.046 24.3685 145.742 24.8438C146.445 25.3125 146.797 26.0319 146.797 27.002C146.797 27.6204 146.618 28.1706 146.26 28.6523C145.908 29.1341 145.41 29.5117 144.766 29.7852C144.121 30.0586 143.366 30.1953 142.5 30.1953C141.53 30.1953 140.713 30.0228 140.049 29.6777C139.385 29.3327 138.88 28.89 138.535 28.3496C138.197 27.8092 138.027 27.2526 138.027 26.6797H140.361C140.394 27.3112 140.632 27.7572 141.074 28.0176C141.517 28.278 142.002 28.4082 142.529 28.4082C143.148 28.4082 143.617 28.2878 143.936 28.0469C144.261 27.7995 144.424 27.4902 144.424 27.1191ZM155.166 19.4336H157.588V30H155.303L155.244 28.9355C154.912 29.3327 154.502 29.6419 154.014 29.8633C153.525 30.0846 152.946 30.1953 152.275 30.1953C151.234 30.1953 150.391 29.8893 149.746 29.2773C149.102 28.6654 148.779 27.6595 148.779 26.2598V19.4336H151.201V26.2793C151.201 27.015 151.367 27.5228 151.699 27.8027C152.031 28.0762 152.425 28.2129 152.881 28.2129C153.48 28.2129 153.962 28.1055 154.326 27.8906C154.697 27.6693 154.977 27.373 155.166 27.002V19.4336ZM162.393 30H159.961V19.4336H162.246L162.324 20.5859C162.676 20.1628 163.105 19.834 163.613 19.5996C164.128 19.3587 164.72 19.2383 165.391 19.2383C166.042 19.2383 166.618 19.3685 167.119 19.6289C167.62 19.8893 168.008 20.3027 168.281 20.8691C168.626 20.3743 169.069 19.9805 169.609 19.6875C170.156 19.388 170.794 19.2383 171.523 19.2383C172.598 19.2383 173.441 19.541 174.053 20.1465C174.671 20.752 174.98 21.7643 174.98 23.1836V30H172.549V23.1641C172.549 22.3893 172.38 21.8717 172.041 21.6113C171.709 21.3509 171.26 21.2207 170.693 21.2207C170.166 21.2207 169.733 21.3607 169.395 21.6406C169.056 21.9206 168.818 22.2852 168.682 22.7344C168.682 22.806 168.682 22.8809 168.682 22.959V30H166.26V23.1836C166.26 22.4349 166.09 21.9206 165.752 21.6406C165.42 21.3607 164.967 21.2207 164.395 21.2207C163.893 21.2207 163.48 21.3281 163.154 21.543C162.829 21.7513 162.575 22.0378 162.393 22.4023V30ZM182.051 30.1953C181.003 30.1953 180.098 29.9707 179.336 29.5215C178.574 29.0658 177.988 28.4538 177.578 27.6855C177.168 26.9108 176.963 26.0449 176.963 25.0879V24.6875C176.963 23.5872 177.171 22.6302 177.588 21.8164C178.005 20.9961 178.574 20.3613 179.297 19.9121C180.026 19.4629 180.85 19.2383 181.768 19.2383C182.783 19.2383 183.626 19.4596 184.297 19.9023C184.967 20.3385 185.469 20.9473 185.801 21.7285C186.133 22.5033 186.299 23.4017 186.299 24.4238V25.4688H179.404C179.469 26.2695 179.746 26.9336 180.234 27.4609C180.723 27.9818 181.377 28.2422 182.197 28.2422C182.764 28.2422 183.265 28.1315 183.701 27.9102C184.137 27.6888 184.518 27.3698 184.844 26.9531L186.113 28.2227C185.775 28.724 185.273 29.1797 184.609 29.5898C183.945 29.9935 183.092 30.1953 182.051 30.1953ZM181.758 21.1816C181.113 21.1816 180.596 21.4095 180.205 21.8652C179.814 22.321 179.564 22.9395 179.453 23.7207H183.906V23.5352C183.893 23.125 183.812 22.7409 183.662 22.3828C183.519 22.0247 183.291 21.735 182.979 21.5137C182.673 21.2923 182.266 21.1816 181.758 21.1816Z" fill="white"/>
</svg>
